<?xml version="1.0" encoding="UTF-8"?>
<svg id="_Слой_2" data-name="Слой 2" xmlns="http://www.w3.org/2000/svg" viewBox="0 0 2205.78 36.52">
  <defs>
    <style>
      .cls-1 {
        fill: #ffe719;
      }

      .cls-2 {
        fill: none;
        stroke: #ffe719;
        stroke-miterlimit: 10;
      }
    </style>
  </defs>
  <g id="OBJECTS">
    <g>
      <path class="cls-1" d="M28.88,24.6c0,2.56-1.08,4.56-3.24,6-2.16,1.44-5.55,2.16-10.16,2.16-2.75,0-5.1-.24-7.06-.72-1.96-.48-3.57-1.19-4.84-2.14-1.27-.95-2.19-2.13-2.78-3.54-.37-.85-.64-1.8-.8-2.84H6.52c.08,.24,.17,.45,.28,.64,.32,.75,.85,1.34,1.6,1.78,.75,.44,1.72,.75,2.92,.94,1.2,.19,2.67,.28,4.4,.28,4.51,0,6.76-.83,6.76-2.48,0-.77-.52-1.41-1.56-1.9-1.04-.49-2.35-.97-3.92-1.42-1.57-.45-3.27-.93-5.08-1.42-1.81-.49-3.51-1.11-5.08-1.84-1.57-.73-2.88-1.65-3.92-2.76-1.04-1.11-1.56-2.49-1.56-4.14,0-2.43,1.03-4.27,3.1-5.54,2.07-1.27,5.13-1.9,9.18-1.9,2.29,0,4.31,.24,6.06,.72,1.75,.48,3.2,1.16,4.36,2.04s2.03,1.93,2.62,3.16c.37,.77,.63,1.6,.76,2.48h-6.6c-.8-1.87-3.2-2.8-7.2-2.8s-5.88,.69-5.88,2.08c0,.64,.52,1.2,1.56,1.68,1.04,.48,2.35,.95,3.92,1.42,1.57,.47,3.27,.97,5.08,1.5,1.81,.53,3.51,1.18,5.08,1.94s2.88,1.67,3.92,2.74,1.56,2.36,1.56,3.88Z"/>
      <path class="cls-1" d="M31.36,18.24c0-2.11,.38-4.05,1.14-5.82,.76-1.77,1.84-3.3,3.24-4.58,1.4-1.28,3.09-2.28,5.06-3,1.97-.72,4.19-1.08,6.64-1.08s4.71,.36,6.68,1.08c1.97,.72,3.65,1.73,5.04,3.02,1.39,1.29,2.45,2.83,3.2,4.6,.75,1.77,1.12,3.7,1.12,5.78s-.37,4.05-1.12,5.82c-.75,1.77-1.81,3.31-3.18,4.6-1.38,1.29-3.05,2.3-5.04,3.02-1.99,.72-4.22,1.08-6.7,1.08s-4.71-.36-6.68-1.08c-1.97-.72-3.66-1.73-5.06-3.02-1.4-1.29-2.47-2.83-3.22-4.6-.75-1.77-1.12-3.71-1.12-5.82Zm6.4,0c0,2.72,.81,4.89,2.42,6.5,1.61,1.61,4.03,2.42,7.26,2.42s5.67-.81,7.26-2.42c1.59-1.61,2.38-3.78,2.38-6.5s-.79-4.88-2.38-6.48c-1.59-1.6-4.01-2.4-7.26-2.4s-5.65,.79-7.26,2.38c-1.61,1.59-2.42,3.75-2.42,6.5Z"/>
      <path class="cls-1" d="M66.88,18.24c0-2.11,.38-4.05,1.14-5.82,.76-1.77,1.85-3.3,3.26-4.58,1.41-1.28,3.11-2.28,5.1-3,1.99-.72,4.23-1.08,6.74-1.08,2.16,0,4.14,.26,5.94,.78,1.8,.52,3.37,1.27,4.7,2.24,1.33,.97,2.41,2.15,3.24,3.54,.69,1.17,1.19,2.48,1.48,3.92h-6.48c-.48-1.44-1.41-2.59-2.8-3.44-1.6-.96-3.61-1.44-6.04-1.44-1.52,0-2.89,.19-4.1,.58-1.21,.39-2.25,.96-3.1,1.72s-1.51,1.69-1.98,2.78c-.47,1.09-.7,2.36-.7,3.8s.23,2.71,.7,3.82,1.13,2.04,1.98,2.8,1.89,1.33,3.1,1.72c1.21,.39,2.58,.58,4.1,.58,2.43,0,4.44-.48,6.04-1.44,1.41-.88,2.35-2.07,2.8-3.56h6.48c-.27,1.47-.76,2.8-1.48,4-.83,1.41-1.91,2.61-3.24,3.58-1.33,.97-2.9,1.72-4.7,2.24-1.8,.52-3.78,.78-5.94,.78-2.51,0-4.76-.36-6.76-1.08-2-.72-3.7-1.73-5.1-3.02-1.4-1.29-2.48-2.83-3.24-4.6s-1.14-3.71-1.14-5.82Z"/>
      <path class="cls-1" d="M121.92,9.76h-7.36V26.76h7.36v5.6h-21.16v-5.6h7.36V9.76h-7.36V4.16h21.16v5.6Z"/>
      <path class="cls-1" d="M151.56,32.36l-2.16-6.56h-15.68l-2.08,6.56h-6.52l9.32-28.2h14.24l9.4,28.2h-6.52Zm-16.04-12.16h12.08l-4.64-14.44h-2.76l-4.68,14.44Z"/>
      <path class="cls-1" d="M164.68,32.76c-1.07,0-1.89-.29-2.46-.86-.57-.57-.86-1.41-.86-2.5V4.16h6.4V27.16h.48l15.28-.4v5.6l-18.84,.4Z"/>
      <path class="cls-1" d="M200.08,32.36V4.16h13.52l4.76,26.6h2.8l4.72-26.6h13.52v28.2h-6.4V5.76h-1.4l-5.2,26.6h-13.32l-5.2-26.6h-1.4v26.6h-6.4Z"/>
      <path class="cls-1" d="M244.12,32.36V4.16h22.16v5.6h-15.76v5.68h13.48v5.6h-13.48v5.72h15.76v5.6h-22.16Z"/>
      <path class="cls-1" d="M281.96,4.16c2.85,0,5.35,.26,7.5,.78,2.15,.52,3.94,1.34,5.38,2.46,1.44,1.12,2.52,2.57,3.24,4.36,.72,1.79,1.08,3.95,1.08,6.48s-.38,4.86-1.14,6.66-1.88,3.25-3.34,4.36c-1.47,1.11-3.27,1.9-5.4,2.38-2.13,.48-4.57,.72-7.32,.72h-11.48V4.16h11.48Zm0,22.6c.51,0,.95,0,1.34-.02,.39-.01,.76-.03,1.12-.04,.36-.01,.71-.04,1.06-.08,.35-.04,.72-.09,1.12-.14,1.25-.19,2.28-.53,3.08-1.02,.8-.49,1.43-1.11,1.88-1.84,.45-.73,.77-1.56,.94-2.48,.17-.92,.26-1.89,.26-2.9,0-1.81-.23-3.27-.68-4.38-.46-1.11-1.13-1.96-2.04-2.56-.91-.6-2.03-1.01-3.38-1.22-1.35-.21-2.92-.32-4.7-.32h-5.08V26.76h5.08Z"/>
      <path class="cls-1" d="M322.48,9.76h-7.36V26.76h7.36v5.6h-21.16v-5.6h7.36V9.76h-7.36V4.16h21.16v5.6Z"/>
      <path class="cls-1" d="M352.12,32.36l-2.16-6.56h-15.68l-2.08,6.56h-6.52l9.32-28.2h14.24l9.4,28.2h-6.52Zm-16.04-12.16h12.08l-4.64-14.44h-2.76l-4.68,14.44Z"/>
      <path class="cls-1" d="M375.2,32.36V4.16h10.92c2.29,0,4.25,.11,5.88,.34,1.63,.23,2.96,.61,4,1.14s1.81,1.24,2.3,2.12c.49,.88,.74,1.99,.74,3.32,0,1.09-.19,2.05-.58,2.88-.39,.83-1.14,1.51-2.26,2.04l-.12,.08c-.16,.08-.37,.15-.64,.2-.27,.05-.55,.11-.84,.16-.29,.05-.57,.09-.82,.12-.25,.03-.43,.04-.54,.04-.24,.05-.75,.09-1.52,.12h-.44v1.6h.44c1.41,.03,2.71,.12,3.9,.28s2.21,.47,3.08,.94c.87,.47,1.54,1.12,2.02,1.96,.48,.84,.72,1.97,.72,3.38,0,1.81-.47,3.22-1.42,4.22-.95,1-2.15,1.74-3.6,2.22-1.45,.48-3.05,.77-4.78,.88-1.73,.11-3.39,.16-4.96,.16h-11.48Zm6.4-17.48h6.44c.43,0,.87-.02,1.34-.06,.47-.04,.9-.1,1.3-.18,.4-.08,.69-.19,.88-.32,.29-.21,.55-.49,.76-.82,.21-.33,.32-.73,.32-1.18,0-.75-.21-1.3-.62-1.66-.41-.36-1.02-.61-1.82-.74-.53-.08-.99-.13-1.38-.14-.39-.01-.98-.02-1.78-.02h-5.44v5.12Zm0,11.88h6.68c.29,0,.69,0,1.2-.02,.51-.01,1.04-.04,1.6-.08,.56-.04,1.09-.11,1.58-.2,.49-.09,.85-.22,1.06-.38,.35-.24,.65-.57,.92-.98,.27-.41,.4-.9,.4-1.46,0-.93-.27-1.63-.82-2.08-.55-.45-1.29-.75-2.22-.88-.64-.11-1.2-.17-1.68-.18-.48-.01-1.16-.02-2.04-.02h-6.68v6.28Z"/>
      <path class="cls-1" d="M403.44,4.16h13.32c2.05,0,3.89,.15,5.5,.44,1.61,.29,2.98,.77,4.1,1.42s1.97,1.51,2.56,2.56c.59,1.05,.88,2.34,.88,3.86,0,4.67-2.87,7.36-8.6,8.08h-.36l3.88,6.24h5.68v5.6h-6.52c-1.84,0-3.24-.81-4.2-2.44-.93-1.52-1.85-3.05-2.76-4.58-.91-1.53-1.83-3.06-2.76-4.58h-4.32v11.6h-6.4V4.16Zm6.4,11h7.84c2.05,0,3.52-.18,4.4-.54,.88-.36,1.32-1.09,1.32-2.18s-.44-1.78-1.32-2.14c-.88-.36-2.35-.54-4.4-.54h-7.84v5.4Z"/>
      <path class="cls-1" d="M460.12,32.36l-2.16-6.56h-15.68l-2.08,6.56h-6.52l9.32-28.2h14.24l9.4,28.2h-6.52Zm-16.04-12.16h12.08l-4.64-14.44h-2.76l-4.68,14.44Z"/>
      <path class="cls-1" d="M469.92,32.36V4.16h13.56l9.8,26.6h1.4V4.16h6.4v28.2h-13.56l-9.8-26.6h-1.48l.08,3.96v22.64h-6.4Z"/>
      <path class="cls-1" d="M517.28,4.16c2.85,0,5.35,.26,7.5,.78,2.15,.52,3.94,1.34,5.38,2.46,1.44,1.12,2.52,2.57,3.24,4.36,.72,1.79,1.08,3.95,1.08,6.48s-.38,4.86-1.14,6.66-1.87,3.25-3.34,4.36c-1.47,1.11-3.27,1.9-5.4,2.38-2.13,.48-4.57,.72-7.32,.72h-11.48V4.16h11.48Zm0,22.6c.51,0,.95,0,1.34-.02,.39-.01,.76-.03,1.12-.04,.36-.01,.71-.04,1.06-.08s.72-.09,1.12-.14c1.25-.19,2.28-.53,3.08-1.02,.8-.49,1.43-1.11,1.88-1.84,.45-.73,.77-1.56,.94-2.48,.17-.92,.26-1.89,.26-2.9,0-1.81-.23-3.27-.68-4.38-.45-1.11-1.13-1.96-2.04-2.56-.91-.6-2.03-1.01-3.38-1.22-1.35-.21-2.91-.32-4.7-.32h-5.08V26.76h5.08Z"/>
      <path class="cls-1" d="M567.36,0l4.44,1.48-15.52,35.04-4.4-1.48L567.36,0Z"/>
      <path class="cls-2" d="M589.67,32.36V4.16h10.92c2.29,0,4.25,.11,5.88,.34,1.63,.23,2.96,.61,4,1.14s1.81,1.24,2.3,2.12c.49,.88,.74,1.99,.74,3.32,0,1.09-.19,2.05-.58,2.88-.39,.83-1.14,1.51-2.26,2.04l-.12,.08c-.16,.08-.37,.15-.64,.2-.27,.05-.55,.11-.84,.16-.29,.05-.57,.09-.82,.12-.25,.03-.43,.04-.54,.04-.24,.05-.75,.09-1.52,.12h-.44v1.6h.44c1.41,.03,2.71,.12,3.9,.28s2.21,.47,3.08,.94c.87,.47,1.54,1.12,2.02,1.96,.48,.84,.72,1.97,.72,3.38,0,1.81-.47,3.22-1.42,4.22-.95,1-2.15,1.74-3.6,2.22-1.45,.48-3.05,.77-4.78,.88-1.73,.11-3.39,.16-4.96,.16h-11.48Zm6.4-17.48h6.44c.43,0,.87-.02,1.34-.06,.47-.04,.9-.1,1.3-.18,.4-.08,.69-.19,.88-.32,.29-.21,.55-.49,.76-.82,.21-.33,.32-.73,.32-1.18,0-.75-.21-1.3-.62-1.66-.41-.36-1.02-.61-1.82-.74-.53-.08-.99-.13-1.38-.14-.39-.01-.98-.02-1.78-.02h-5.44v5.12Zm0,11.88h6.68c.29,0,.69,0,1.2-.02,.51-.01,1.04-.04,1.6-.08,.56-.04,1.09-.11,1.58-.2,.49-.09,.85-.22,1.06-.38,.35-.24,.65-.57,.92-.98,.27-.41,.4-.9,.4-1.46,0-.93-.27-1.63-.82-2.08-.55-.45-1.29-.75-2.22-.88-.64-.11-1.2-.17-1.68-.18-.48-.01-1.16-.02-2.04-.02h-6.68v6.28Z"/>
      <path class="cls-2" d="M617.92,4.16h13.32c2.05,0,3.89,.15,5.5,.44,1.61,.29,2.98,.77,4.1,1.42s1.97,1.51,2.56,2.56c.59,1.05,.88,2.34,.88,3.86,0,4.67-2.87,7.36-8.6,8.08h-.36l3.88,6.24h5.68v5.6h-6.52c-1.84,0-3.24-.81-4.2-2.44-.93-1.52-1.85-3.05-2.76-4.58-.91-1.53-1.83-3.06-2.76-4.58h-4.32v11.6h-6.4V4.16Zm6.4,11h7.84c2.05,0,3.52-.18,4.4-.54,.88-.36,1.32-1.09,1.32-2.18s-.44-1.78-1.32-2.14c-.88-.36-2.35-.54-4.4-.54h-7.84v5.4Z"/>
      <path class="cls-2" d="M674.59,32.36l-2.16-6.56h-15.68l-2.08,6.56h-6.52l9.32-28.2h14.24l9.4,28.2h-6.52Zm-16.04-12.16h12.08l-4.64-14.44h-2.76l-4.68,14.44Z"/>
      <path class="cls-2" d="M684.39,32.36V4.16h13.56l9.8,26.6h1.4V4.16h6.4v28.2h-13.56l-9.8-26.6h-1.48l.08,3.96v22.64h-6.4Z"/>
      <path class="cls-2" d="M731.75,4.16c2.85,0,5.35,.26,7.5,.78,2.15,.52,3.94,1.34,5.38,2.46,1.44,1.12,2.52,2.57,3.24,4.36,.72,1.79,1.08,3.95,1.08,6.48s-.38,4.86-1.14,6.66-1.87,3.25-3.34,4.36c-1.47,1.11-3.27,1.9-5.4,2.38-2.13,.48-4.57,.72-7.32,.72h-11.48V4.16h11.48Zm0,22.6c.51,0,.95,0,1.34-.02,.39-.01,.76-.03,1.12-.04,.36-.01,.71-.04,1.06-.08s.72-.09,1.12-.14c1.25-.19,2.28-.53,3.08-1.02,.8-.49,1.43-1.11,1.88-1.84,.45-.73,.77-1.56,.94-2.48,.17-.92,.26-1.89,.26-2.9,0-1.81-.23-3.27-.68-4.38-.45-1.11-1.13-1.96-2.04-2.56-.91-.6-2.03-1.01-3.38-1.22-1.35-.21-2.91-.32-4.7-.32h-5.08V26.76h5.08Z"/>
      <path class="cls-2" d="M772.28,9.76h-7.36V26.76h7.36v5.6h-21.16v-5.6h7.36V9.76h-7.36V4.16h21.16v5.6Z"/>
      <path class="cls-2" d="M776.51,32.36V4.16h13.56l9.8,26.6h1.4V4.16h6.4v28.2h-13.56l-9.8-26.6h-1.48l.08,3.96v22.64h-6.4Z"/>
      <path class="cls-2" d="M811.51,18.24c0-2.05,.37-3.96,1.12-5.72,.75-1.76,1.81-3.29,3.2-4.58,1.39-1.29,3.05-2.31,5-3.06,1.95-.75,4.13-1.12,6.56-1.12,1.87,0,3.64,.23,5.32,.7,1.68,.47,3.19,1.15,4.54,2.04,1.35,.89,2.46,1.99,3.34,3.3,.67,.99,1.16,2.08,1.48,3.28h-6.52c-.48-1.09-1.23-1.95-2.24-2.56-1.36-.77-3.33-1.16-5.92-1.16-6.32,0-9.48,2.96-9.48,8.88,0,3.12,.69,5.39,2.06,6.8,1.37,1.41,3.5,2.12,6.38,2.12,2.43,0,4.31-.49,5.66-1.46,1.35-.97,2.02-2.39,2.02-4.26h-7.52v-4.8h16.48c2.27,0,3.4,1.13,3.4,3.4v12.32h-6.4v-14.12h-1.4c-.03,4.59-1.07,8.15-3.14,10.7-2.07,2.55-5.18,3.82-9.34,3.82-2.48,0-4.64-.38-6.48-1.14-1.84-.76-3.36-1.79-4.56-3.1s-2.09-2.85-2.68-4.62c-.59-1.77-.88-3.66-.88-5.66Z"/>
      <path class="cls-1" d="M879.75,0l4.44,1.48-15.52,35.04-4.4-1.48L879.75,0Z"/>
      <path class="cls-1" d="M902.07,32.36V4.16h13.52l4.76,26.6h2.8l4.72-26.6h13.52v28.2h-6.4V5.76h-1.4l-5.2,26.6h-13.32l-5.2-26.6h-1.4v26.6h-6.4Z"/>
      <path class="cls-1" d="M971.11,32.36l-2.16-6.56h-15.68l-2.08,6.56h-6.52l9.32-28.2h14.24l9.4,28.2h-6.52Zm-16.04-12.16h12.08l-4.64-14.44h-2.76l-4.68,14.44Z"/>
      <path class="cls-1" d="M979.07,4.16h13.32c2.05,0,3.89,.15,5.5,.44,1.61,.29,2.98,.77,4.1,1.42s1.97,1.51,2.56,2.56c.59,1.05,.88,2.34,.88,3.86,0,4.67-2.87,7.36-8.6,8.08h-.36l3.88,6.24h5.68v5.6h-6.52c-1.84,0-3.24-.81-4.2-2.44-.93-1.52-1.85-3.05-2.76-4.58-.91-1.53-1.83-3.06-2.76-4.58h-4.32v11.6h-6.4V4.16Zm6.4,11h7.84c2.05,0,3.52-.18,4.4-.54,.88-.36,1.32-1.09,1.32-2.18s-.44-1.78-1.32-2.14c-.88-.36-2.35-.54-4.4-.54h-7.84v5.4Z"/>
      <path class="cls-1" d="M1041.67,4.16l-19.56,14.12,19.56,14.08h-10.16l-13.56-9.96h-.8v9.96h-6.4V4.16h6.4V14.16h.8l13.56-10h10.16Z"/>
      <path class="cls-1" d="M1044.35,32.36V4.16h22.16v5.6h-15.76v5.68h13.48v5.6h-13.48v5.72h15.76v5.6h-22.16Z"/>
      <path class="cls-1" d="M1097.35,4.16v5.6h-10.6v22.6h-6.4V9.76h-10.64V4.16h27.64Z"/>
      <path class="cls-1" d="M1122.15,9.76h-7.36V26.76h7.36v5.6h-21.16v-5.6h7.36V9.76h-7.36V4.16h21.16v5.6Z"/>
      <path class="cls-1" d="M1126.39,32.36V4.16h13.56l9.8,26.6h1.4V4.16h6.4v28.2h-13.56l-9.8-26.6h-1.48l.08,3.96v22.64h-6.4Z"/>
      <path class="cls-1" d="M1161.39,18.24c0-2.05,.37-3.96,1.12-5.72,.75-1.76,1.81-3.29,3.2-4.58,1.39-1.29,3.05-2.31,5-3.06,1.95-.75,4.13-1.12,6.56-1.12,1.87,0,3.64,.23,5.32,.7,1.68,.47,3.19,1.15,4.54,2.04,1.35,.89,2.46,1.99,3.34,3.3,.67,.99,1.16,2.08,1.48,3.28h-6.52c-.48-1.09-1.23-1.95-2.24-2.56-1.36-.77-3.33-1.16-5.92-1.16-6.32,0-9.48,2.96-9.48,8.88,0,3.12,.69,5.39,2.06,6.8,1.37,1.41,3.5,2.12,6.38,2.12,2.43,0,4.31-.49,5.66-1.46,1.35-.97,2.02-2.39,2.02-4.26h-7.52v-4.8h16.48c2.27,0,3.4,1.13,3.4,3.4v12.32h-6.4v-14.12h-1.4c-.03,4.59-1.07,8.15-3.14,10.7-2.07,2.55-5.18,3.82-9.34,3.82-2.48,0-4.64-.38-6.48-1.14-1.84-.76-3.36-1.79-4.56-3.1s-2.09-2.85-2.68-4.62c-.59-1.77-.88-3.66-.88-5.66Z"/>
      <path class="cls-1" d="M1229.63,0l4.44,1.48-15.52,35.04-4.4-1.48,15.48-35.04Z"/>
      <path class="cls-2" d="M1263.11,4.16c2.13,0,4.05,.12,5.76,.36s3.17,.71,4.4,1.42c1.23,.71,2.17,1.71,2.82,3,.65,1.29,.98,2.99,.98,5.1s-.34,3.85-1.02,5.16c-.68,1.31-1.63,2.31-2.84,3.02-1.21,.71-2.68,1.17-4.4,1.4-1.72,.23-3.62,.34-5.7,.34h-4.76v8.4h-6.4V4.16h11.16Zm.44,14.2c1.31,0,2.41-.05,3.32-.16,.91-.11,1.64-.31,2.2-.62,.56-.31,.97-.75,1.22-1.32,.25-.57,.38-1.31,.38-2.22s-.13-1.64-.38-2.2c-.25-.56-.66-.99-1.22-1.3-.56-.31-1.29-.51-2.2-.62-.91-.11-2.01-.16-3.32-.16h-5.2v8.6h5.2Z"/>
      <path class="cls-2" d="M1279.03,4.16h13.32c2.05,0,3.89,.15,5.5,.44,1.61,.29,2.98,.77,4.1,1.42s1.97,1.51,2.56,2.56c.59,1.05,.88,2.34,.88,3.86,0,4.67-2.87,7.36-8.6,8.08h-.36l3.88,6.24h5.68v5.6h-6.52c-1.84,0-3.24-.81-4.2-2.44-.93-1.52-1.85-3.05-2.76-4.58-.91-1.53-1.83-3.06-2.76-4.58h-4.32v11.6h-6.4V4.16Zm6.4,11h7.84c2.05,0,3.52-.18,4.4-.54,.88-.36,1.32-1.09,1.32-2.18s-.44-1.78-1.32-2.14c-.88-.36-2.35-.54-4.4-.54h-7.84v5.4Z"/>
      <path class="cls-2" d="M1309.43,18.24c0-2.11,.38-4.05,1.14-5.82,.76-1.77,1.84-3.3,3.24-4.58,1.4-1.28,3.09-2.28,5.06-3,1.97-.72,4.19-1.08,6.64-1.08s4.71,.36,6.68,1.08c1.97,.72,3.65,1.73,5.04,3.02,1.39,1.29,2.45,2.83,3.2,4.6,.75,1.77,1.12,3.7,1.12,5.78s-.37,4.05-1.12,5.82c-.75,1.77-1.81,3.31-3.18,4.6-1.37,1.29-3.05,2.3-5.04,3.02-1.99,.72-4.22,1.08-6.7,1.08s-4.71-.36-6.68-1.08c-1.97-.72-3.66-1.73-5.06-3.02-1.4-1.29-2.47-2.83-3.22-4.6-.75-1.77-1.12-3.71-1.12-5.82Zm6.4,0c0,2.72,.81,4.89,2.42,6.5,1.61,1.61,4.03,2.42,7.26,2.42s5.67-.81,7.26-2.42c1.59-1.61,2.38-3.78,2.38-6.5s-.79-4.88-2.38-6.48c-1.59-1.6-4.01-2.4-7.26-2.4s-5.65,.79-7.26,2.38c-1.61,1.59-2.42,3.75-2.42,6.5Z"/>
      <path class="cls-2" d="M1345.83,32.36V4.16h13.52l4.76,26.6h2.8l4.72-26.6h13.52v28.2h-6.4V5.76h-1.4l-5.2,26.6h-13.32l-5.2-26.6h-1.4v26.6h-6.4Z"/>
      <path class="cls-2" d="M1388.99,18.24c0-2.11,.38-4.05,1.14-5.82,.76-1.77,1.84-3.3,3.24-4.58,1.4-1.28,3.09-2.28,5.06-3,1.97-.72,4.19-1.08,6.64-1.08s4.71,.36,6.68,1.08c1.97,.72,3.65,1.73,5.04,3.02,1.39,1.29,2.45,2.83,3.2,4.6,.75,1.77,1.12,3.7,1.12,5.78s-.37,4.05-1.12,5.82c-.75,1.77-1.81,3.31-3.18,4.6-1.37,1.29-3.05,2.3-5.04,3.02-1.99,.72-4.22,1.08-6.7,1.08s-4.71-.36-6.68-1.08c-1.97-.72-3.66-1.73-5.06-3.02-1.4-1.29-2.47-2.83-3.22-4.6-.75-1.77-1.12-3.71-1.12-5.82Zm6.4,0c0,2.72,.81,4.89,2.42,6.5,1.61,1.61,4.03,2.42,7.26,2.42s5.67-.81,7.26-2.42c1.59-1.61,2.38-3.78,2.38-6.5s-.79-4.88-2.38-6.48c-1.59-1.6-4.01-2.4-7.26-2.4s-5.65,.79-7.26,2.38c-1.61,1.59-2.42,3.75-2.42,6.5Z"/>
      <path class="cls-2" d="M1449.63,4.16v5.6h-10.6v22.6h-6.4V9.76h-10.64V4.16h27.64Z"/>
      <path class="cls-2" d="M1474.43,9.76h-7.36V26.76h7.36v5.6h-21.16v-5.6h7.36V9.76h-7.36V4.16h21.16v5.6Z"/>
      <path class="cls-2" d="M1476.19,18.24c0-2.11,.38-4.05,1.14-5.82,.76-1.77,1.84-3.3,3.24-4.58,1.4-1.28,3.09-2.28,5.06-3,1.97-.72,4.19-1.08,6.64-1.08s4.71,.36,6.68,1.08c1.97,.72,3.65,1.73,5.04,3.02,1.39,1.29,2.45,2.83,3.2,4.6,.75,1.77,1.12,3.7,1.12,5.78s-.37,4.05-1.12,5.82c-.75,1.77-1.81,3.31-3.18,4.6-1.37,1.29-3.05,2.3-5.04,3.02-1.99,.72-4.22,1.08-6.7,1.08s-4.71-.36-6.68-1.08c-1.97-.72-3.66-1.73-5.06-3.02-1.4-1.29-2.47-2.83-3.22-4.6-.75-1.77-1.12-3.71-1.12-5.82Zm6.4,0c0,2.72,.81,4.89,2.42,6.5,1.61,1.61,4.03,2.42,7.26,2.42s5.67-.81,7.26-2.42c1.59-1.61,2.38-3.78,2.38-6.5s-.79-4.88-2.38-6.48c-1.59-1.6-4.01-2.4-7.26-2.4s-5.65,.79-7.26,2.38c-1.61,1.59-2.42,3.75-2.42,6.5Z"/>
      <path class="cls-2" d="M1512.59,32.36V4.16h13.56l9.8,26.6h1.4V4.16h6.4v28.2h-13.56l-9.8-26.6h-1.48l.08,3.96v22.64h-6.4Z"/>
      <path class="cls-1" d="M1577.11,0l4.44,1.48-15.52,35.04-4.4-1.48,15.48-35.04Z"/>
      <path class="cls-1" d="M1627.03,24.6c0,2.56-1.08,4.56-3.24,6-2.16,1.44-5.55,2.16-10.16,2.16-2.75,0-5.1-.24-7.06-.72-1.96-.48-3.57-1.19-4.84-2.14-1.27-.95-2.19-2.13-2.78-3.54-.37-.85-.64-1.8-.8-2.84h6.52c.08,.24,.17,.45,.28,.64,.32,.75,.85,1.34,1.6,1.78,.75,.44,1.72,.75,2.92,.94,1.2,.19,2.67,.28,4.4,.28,4.51,0,6.76-.83,6.76-2.48,0-.77-.52-1.41-1.56-1.9-1.04-.49-2.35-.97-3.92-1.42-1.57-.45-3.27-.93-5.08-1.42-1.81-.49-3.51-1.11-5.08-1.84-1.57-.73-2.88-1.65-3.92-2.76s-1.56-2.49-1.56-4.14c0-2.43,1.03-4.27,3.1-5.54,2.07-1.27,5.13-1.9,9.18-1.9,2.29,0,4.31,.24,6.06,.72,1.75,.48,3.2,1.16,4.36,2.04s2.03,1.93,2.62,3.16c.37,.77,.63,1.6,.76,2.48h-6.6c-.8-1.87-3.2-2.8-7.2-2.8s-5.88,.69-5.88,2.08c0,.64,.52,1.2,1.56,1.68,1.04,.48,2.35,.95,3.92,1.42,1.57,.47,3.27,.97,5.08,1.5,1.81,.53,3.51,1.18,5.08,1.94s2.88,1.67,3.92,2.74,1.56,2.36,1.56,3.88Z"/>
      <path class="cls-1" d="M1630.79,32.36V4.16h13.52l4.76,26.6h2.8l4.72-26.6h13.52v28.2h-6.4V5.76h-1.4l-5.2,26.6h-13.32l-5.2-26.6h-1.4v26.6h-6.4Z"/>
      <path class="cls-1" d="M1674.83,32.36V4.16h13.52l4.76,26.6h2.8l4.72-26.6h13.52v28.2h-6.4V5.76h-1.4l-5.2,26.6h-13.32l-5.2-26.6h-1.4v26.6h-6.4Z"/>
      <path class="cls-1" d="M1747.51,0l4.44,1.48-15.52,35.04-4.4-1.48,15.48-35.04Z"/>
      <path class="cls-2" d="M1769.83,32.36V4.16h13.52l4.76,26.6h2.8l4.72-26.6h13.52v28.2h-6.4V5.76h-1.4l-5.2,26.6h-13.32l-5.2-26.6h-1.4v26.6h-6.4Z"/>
      <path class="cls-2" d="M1812.99,18.24c0-2.11,.38-4.05,1.14-5.82,.76-1.77,1.84-3.3,3.24-4.58,1.4-1.28,3.09-2.28,5.06-3,1.97-.72,4.19-1.08,6.64-1.08s4.71,.36,6.68,1.08c1.97,.72,3.65,1.73,5.04,3.02,1.39,1.29,2.45,2.83,3.2,4.6,.75,1.77,1.12,3.7,1.12,5.78s-.37,4.05-1.12,5.82c-.75,1.77-1.81,3.31-3.18,4.6-1.37,1.29-3.05,2.3-5.04,3.02-1.99,.72-4.22,1.08-6.7,1.08s-4.71-.36-6.68-1.08c-1.97-.72-3.66-1.73-5.06-3.02-1.4-1.29-2.47-2.83-3.22-4.6-.75-1.77-1.12-3.71-1.12-5.82Zm6.4,0c0,2.72,.81,4.89,2.42,6.5,1.61,1.61,4.03,2.42,7.26,2.42s5.67-.81,7.26-2.42c1.59-1.61,2.38-3.78,2.38-6.5s-.79-4.88-2.38-6.48c-1.59-1.6-4.01-2.4-7.26-2.4s-5.65,.79-7.26,2.38c-1.61,1.59-2.42,3.75-2.42,6.5Z"/>
      <path class="cls-2" d="M1873.63,4.16v5.6h-10.6v22.6h-6.4V9.76h-10.64V4.16h27.64Z"/>
      <path class="cls-2" d="M1898.43,9.76h-7.36V26.76h7.36v5.6h-21.16v-5.6h7.36V9.76h-7.36V4.16h21.16v5.6Z"/>
      <path class="cls-2" d="M1900.19,18.24c0-2.11,.38-4.05,1.14-5.82,.76-1.77,1.84-3.3,3.24-4.58,1.4-1.28,3.09-2.28,5.06-3,1.97-.72,4.19-1.08,6.64-1.08s4.71,.36,6.68,1.08c1.97,.72,3.65,1.73,5.04,3.02,1.39,1.29,2.45,2.83,3.2,4.6,.75,1.77,1.12,3.7,1.12,5.78s-.37,4.05-1.12,5.82c-.75,1.77-1.81,3.31-3.18,4.6-1.37,1.29-3.05,2.3-5.04,3.02-1.99,.72-4.22,1.08-6.7,1.08s-4.71-.36-6.68-1.08c-1.97-.72-3.66-1.73-5.06-3.02-1.4-1.29-2.47-2.83-3.22-4.6-.75-1.77-1.12-3.71-1.12-5.82Zm6.4,0c0,2.72,.81,4.89,2.42,6.5,1.61,1.61,4.03,2.42,7.26,2.42s5.67-.81,7.26-2.42c1.59-1.61,2.38-3.78,2.38-6.5s-.79-4.88-2.38-6.48c-1.59-1.6-4.01-2.4-7.26-2.4s-5.65,.79-7.26,2.38c-1.61,1.59-2.42,3.75-2.42,6.5Z"/>
      <path class="cls-2" d="M1936.58,32.36V4.16h13.56l9.8,26.6h1.4V4.16h6.4v28.2h-13.56l-9.8-26.6h-1.48l.08,3.96v22.64h-6.4Z"/>
      <path class="cls-2" d="M1997.62,4.16c2.85,0,5.35,.26,7.5,.78,2.15,.52,3.94,1.34,5.38,2.46,1.44,1.12,2.52,2.57,3.24,4.36,.72,1.79,1.08,3.95,1.08,6.48s-.38,4.86-1.14,6.66-1.87,3.25-3.34,4.36c-1.47,1.11-3.27,1.9-5.4,2.38-2.13,.48-4.57,.72-7.32,.72h-11.48V4.16h11.48Zm0,22.6c.51,0,.95,0,1.34-.02,.39-.01,.76-.03,1.12-.04,.36-.01,.71-.04,1.06-.08s.72-.09,1.12-.14c1.25-.19,2.28-.53,3.08-1.02,.8-.49,1.43-1.11,1.88-1.84,.45-.73,.77-1.56,.94-2.48,.17-.92,.26-1.89,.26-2.9,0-1.81-.23-3.27-.68-4.38-.45-1.11-1.13-1.96-2.04-2.56-.91-.6-2.03-1.01-3.38-1.22-1.35-.21-2.91-.32-4.7-.32h-5.08V26.76h5.08Z"/>
      <path class="cls-2" d="M2019.06,32.36V4.16h22.16v5.6h-15.76v5.68h13.48v5.6h-13.48v5.72h15.76v5.6h-22.16Z"/>
      <path class="cls-2" d="M2072.62,24.6c0,2.56-1.08,4.56-3.24,6-2.16,1.44-5.55,2.16-10.16,2.16-2.75,0-5.1-.24-7.06-.72-1.96-.48-3.57-1.19-4.84-2.14-1.27-.95-2.19-2.13-2.78-3.54-.37-.85-.64-1.8-.8-2.84h6.52c.08,.24,.17,.45,.28,.64,.32,.75,.85,1.34,1.6,1.78,.75,.44,1.72,.75,2.92,.94,1.2,.19,2.67,.28,4.4,.28,4.51,0,6.76-.83,6.76-2.48,0-.77-.52-1.41-1.56-1.9-1.04-.49-2.35-.97-3.92-1.42-1.57-.45-3.27-.93-5.08-1.42-1.81-.49-3.51-1.11-5.08-1.84-1.57-.73-2.88-1.65-3.92-2.76s-1.56-2.49-1.56-4.14c0-2.43,1.03-4.27,3.1-5.54,2.07-1.27,5.13-1.9,9.18-1.9,2.29,0,4.31,.24,6.06,.72,1.75,.48,3.2,1.16,4.36,2.04s2.03,1.93,2.62,3.16c.37,.77,.63,1.6,.76,2.48h-6.6c-.8-1.87-3.2-2.8-7.2-2.8s-5.88,.69-5.88,2.08c0,.64,.52,1.2,1.56,1.68,1.04,.48,2.35,.95,3.92,1.42,1.57,.47,3.27,.97,5.08,1.5,1.81,.53,3.51,1.18,5.08,1.94s2.88,1.67,3.92,2.74,1.56,2.36,1.56,3.88Z"/>
      <path class="cls-2" d="M2096.26,9.76h-7.36V26.76h7.36v5.6h-21.16v-5.6h7.36V9.76h-7.36V4.16h21.16v5.6Z"/>
      <path class="cls-2" d="M2098.03,18.24c0-2.05,.37-3.96,1.12-5.72,.75-1.76,1.81-3.29,3.2-4.58,1.39-1.29,3.05-2.31,5-3.06,1.95-.75,4.13-1.12,6.56-1.12,1.87,0,3.64,.23,5.32,.7,1.68,.47,3.19,1.15,4.54,2.04,1.35,.89,2.46,1.99,3.34,3.3,.67,.99,1.16,2.08,1.48,3.28h-6.52c-.48-1.09-1.23-1.95-2.24-2.56-1.36-.77-3.33-1.16-5.92-1.16-6.32,0-9.48,2.96-9.48,8.88,0,3.12,.69,5.39,2.06,6.8,1.37,1.41,3.5,2.12,6.38,2.12,2.43,0,4.31-.49,5.66-1.46,1.35-.97,2.02-2.39,2.02-4.26h-7.52v-4.8h16.48c2.27,0,3.4,1.13,3.4,3.4v12.32h-6.4v-14.12h-1.4c-.03,4.59-1.07,8.15-3.14,10.7-2.07,2.55-5.18,3.82-9.34,3.82-2.48,0-4.64-.38-6.48-1.14-1.84-.76-3.36-1.79-4.56-3.1s-2.09-2.85-2.68-4.62c-.59-1.77-.88-3.66-.88-5.66Z"/>
      <path class="cls-2" d="M2136.82,32.36V4.16h13.56l9.8,26.6h1.4V4.16h6.4v28.2h-13.56l-9.8-26.6h-1.48l.08,3.96v22.64h-6.4Z"/>
      <path class="cls-1" d="M2201.34,0l4.44,1.48-15.52,35.04-4.4-1.48,15.48-35.04Z"/>
    </g>
  </g>
</svg>